<svg width="97" height="93" viewBox="0 0 97 93" fill="none" xmlns="http://www.w3.org/2000/svg">
<g id="ABC Stacked Logo Primary 1" clip-path="url(#clip0_2009_1531)">
<ellipse id="Ellipse 1" cx="48.4995" cy="35.4034" rx="34.9409" ry="35.4034" fill="#D9D9D9"/>
<g id="Group">
<path id="Vector" d="M24.5612 30.8086L27.5954 38.619H21.4883L24.5612 30.8086Z" fill="#C11C2D"/>
<path id="Vector_2" d="M48.4698 32.9369H43.7207V28.082H48.6638C50.8832 28.082 52.086 28.9096 52.086 30.4464V30.5253C52.086 32.1488 50.7668 32.9369 48.4698 32.9369Z" fill="#C11C2D"/>
<path id="Vector_3" d="M43.7207 38.3047H49.4786C52.0084 38.3047 53.1724 39.2899 53.1724 40.7952V40.874C53.1724 42.4976 51.8842 43.4039 49.5562 43.4039H43.7207V38.3126V38.3047Z" fill="#C11C2D"/>
<path id="Vector_4" d="M73.5424 50.1114C76.9723 50.1114 79.5719 49.2444 81.6516 47.8258C76.7706 61.6181 63.7726 71.4777 48.5009 71.4777C33.2292 71.4777 21.3331 62.4378 16.0098 49.5597H17.3212L19.269 44.5865H29.8148L31.7626 49.5597H50.4176C56.9205 49.5597 60.7306 46.683 60.7306 41.9384V41.8359C62.9267 46.8406 67.8233 50.1114 73.5502 50.1114H73.5424Z" fill="#C11C2D"/>
<path id="Vector_5" d="M20.9831 21.721L13.5024 39.7378C13.355 38.4216 13.2852 37.0897 13.2852 35.7341C13.2774 15.9992 29.0457 0 48.5 0C63.6941 0 76.6455 9.765 81.5809 23.447C79.5478 22.1466 77.0025 21.3664 73.8132 21.3664C65.5643 21.3664 59.4959 27.6872 59.4959 35.7341V35.8129C59.4959 36.5537 59.5425 37.2709 59.6434 37.9724C58.7122 36.6247 57.2067 35.7341 55.3133 35.0957C57.7267 34.0317 59.5192 32.1323 59.5192 28.9325V28.8536C59.5192 26.9542 58.8596 25.4962 57.7655 24.3534C56.1747 22.7692 53.7613 21.9023 50.3392 21.9023H36.3712V41.1801L28.2542 21.7053H20.9831V21.721Z" fill="#C11C2D"/>
<path id="Vector_6" d="M83.7225 35.7328C83.7225 37.916 83.5285 40.0518 83.156 42.1246L79.889 39.7602C78.2517 41.77 76.5833 43.1177 73.7431 43.1177C69.9252 43.1177 67.2402 39.8784 67.2402 35.7328V35.654C67.2402 31.6266 69.9252 28.3086 73.7431 28.3086C76.3505 28.3086 78.143 29.6169 79.695 31.5478L83.0784 28.8918C83.5052 31.1065 83.7302 33.3921 83.7302 35.7328H83.7225Z" fill="#C11C2D"/>
</g>
<g id="Group_2">
<g id="Group_3">
<path id="Vector_7" d="M18.3373 78.7656H19.3306L21.4258 83.7703H20.3006L19.8505 82.659H17.7786L17.3285 83.7703H16.2266L18.3218 78.7656H18.3373ZM19.4702 81.6896L18.8184 80.0818L18.1666 81.6896H19.4702Z" fill="white"/>
<path id="Vector_8" d="M21.9687 83.0455L22.605 82.2731C23.0473 82.6435 23.5052 82.88 24.0639 82.88C24.5062 82.88 24.7701 82.6987 24.7701 82.415V82.3992C24.7701 82.1234 24.5993 81.9815 23.7845 81.7687C22.799 81.5165 22.1627 81.2328 22.1627 80.2476V80.2318C22.1627 79.3334 22.8766 78.7344 23.8777 78.7344C24.5916 78.7344 25.1969 78.9629 25.6935 79.3649L25.1348 80.1845C24.7002 79.8772 24.2734 79.6959 23.8621 79.6959C23.4509 79.6959 23.2336 79.8851 23.2336 80.1294V80.1451C23.2336 80.4683 23.4431 80.5786 24.2889 80.7993C25.2822 81.0594 25.8409 81.4219 25.8409 82.2889V82.3046C25.8409 83.2898 25.096 83.8415 24.0406 83.8415C23.2957 83.8415 22.5507 83.5814 21.9609 83.0455H21.9687Z" fill="white"/>
<path id="Vector_9" d="M26.5468 83.0455L27.1831 82.2731C27.6255 82.6435 28.0833 82.88 28.642 82.88C29.0843 82.88 29.3482 82.6987 29.3482 82.415V82.3992C29.3482 82.1234 29.1775 81.9815 28.3627 81.7687C27.3771 81.5165 26.7408 81.2328 26.7408 80.2476V80.2318C26.7408 79.3334 27.4547 78.7344 28.4558 78.7344C29.1697 78.7344 29.775 78.9629 30.2716 79.3649L29.7129 80.1845C29.2783 79.8772 28.8515 79.6959 28.4403 79.6959C28.029 79.6959 27.8117 79.8851 27.8117 80.1294V80.1451C27.8117 80.4683 28.0212 80.5786 28.8671 80.7993C29.8603 81.0594 30.4191 81.4219 30.4191 82.2889V82.3046C30.4191 83.2898 29.6741 83.8415 28.6187 83.8415C27.8738 83.8415 27.1288 83.5814 26.5391 83.0455H26.5468Z" fill="white"/>
<path id="Vector_10" d="M31.2031 81.296V81.2803C31.2031 79.8695 32.305 78.7109 33.8105 78.7109C35.3159 78.7109 36.4023 79.8537 36.4023 81.2645V81.2803C36.4023 82.691 35.3004 83.8496 33.795 83.8496C32.2895 83.8496 31.2031 82.7068 31.2031 81.296ZM35.2849 81.296V81.2803C35.2849 80.4291 34.6718 79.7198 33.8027 79.7198C32.9336 79.7198 32.3361 80.4133 32.3361 81.2645V81.2803C32.3361 82.1314 32.9491 82.8408 33.8182 82.8408C34.6874 82.8408 35.2849 82.1472 35.2849 81.296Z" fill="white"/>
<path id="Vector_11" d="M37.248 81.296V81.2803C37.248 79.8695 38.2956 78.7109 39.8011 78.7109C40.7245 78.7109 41.2755 79.0262 41.7333 79.4754L41.0504 80.2793C40.6702 79.9325 40.29 79.7198 39.8011 79.7198C38.9785 79.7198 38.381 80.4133 38.381 81.2645V81.2803C38.381 82.1314 38.963 82.8408 39.8011 82.8408C40.3598 82.8408 40.7012 82.6122 41.0892 82.2575L41.7721 82.959C41.2677 83.5028 40.709 83.8496 39.7623 83.8496C38.3189 83.8496 37.248 82.7225 37.248 81.296Z" fill="white"/>
<path id="Vector_12" d="M42.7188 78.7969H43.7974V83.7621H42.7188V78.7969Z" fill="white"/>
<path id="Vector_13" d="M46.7474 78.7656H47.7407L49.8359 83.7703H48.7107L48.2606 82.659H46.1887L45.7386 83.7703H44.6367L46.7319 78.7656H46.7474ZM47.8804 81.6896L47.2286 80.0818L46.5767 81.6896H47.8804Z" fill="white"/>
<path id="Vector_14" d="M51.2634 79.8057H49.7734V78.7969H53.8319V79.8057H52.342V83.77H51.2634V79.8057Z" fill="white"/>
<path id="Vector_15" d="M54.7246 78.7969H55.8033V83.7621H54.7246V78.7969Z" fill="white"/>
<path id="Vector_16" d="M56.9121 81.296V81.2803C56.9121 79.8695 58.014 78.7109 59.5195 78.7109C61.0249 78.7109 62.1113 79.8537 62.1113 81.2645V81.2803C62.1113 82.691 61.0094 83.8496 59.504 83.8496C57.9985 83.8496 56.9121 82.7068 56.9121 81.296ZM60.9939 81.296V81.2803C60.9939 80.4291 60.3808 79.7198 59.5117 79.7198C58.6426 79.7198 58.0451 80.4133 58.0451 81.2645V81.2803C58.0451 82.1314 58.6581 82.8408 59.5272 82.8408C60.3964 82.8408 60.9939 82.1472 60.9939 81.296Z" fill="white"/>
<path id="Vector_17" d="M63.1973 78.7969H64.1905L66.4875 81.8548V78.7969H67.5506V83.7621H66.6349L64.2604 80.6017V83.7621H63.1973V78.7969Z" fill="white"/>
<path id="Vector_18" d="M70.748 81.296V81.2803C70.748 79.8695 71.85 78.7109 73.3554 78.7109C74.8608 78.7109 75.9473 79.8537 75.9473 81.2645V81.2803C75.9473 82.691 74.8453 83.8496 73.3399 83.8496C71.8344 83.8496 70.748 82.7068 70.748 81.296ZM74.8298 81.296V81.2803C74.8298 80.4291 74.2168 79.7198 73.3476 79.7198C72.4785 79.7198 71.881 80.4133 71.881 81.2645V81.2803C71.881 82.1314 72.494 82.8408 73.3632 82.8408C74.2323 82.8408 74.8298 82.1472 74.8298 81.296Z" fill="white"/>
<path id="Vector_19" d="M77.0331 78.7969H80.7579V79.7899H78.104V80.846H80.4398V81.8391H78.104V83.7621H77.0254V78.7969H77.0331Z" fill="white"/>
</g>
<g id="Group_4">
<path id="Vector_20" d="M0 87.9453H2.27368C2.8324 87.9453 3.27472 88.1029 3.55408 88.3867C3.77912 88.6152 3.88776 88.8911 3.88776 89.23V89.2457C3.88776 89.8053 3.59288 90.1206 3.24368 90.3176C3.81016 90.5383 4.15936 90.8693 4.15936 91.5392V91.555C4.15936 92.4613 3.42992 92.9185 2.328 92.9185H0V87.9532V87.9453ZM2.81688 89.4112C2.81688 89.0881 2.56856 88.899 2.11072 88.899H1.0476V89.9472H2.04088C2.51424 89.9472 2.81688 89.7896 2.81688 89.4191V89.4034V89.4112ZM2.2892 90.8614H1.0476V91.9569H2.328C2.80136 91.9569 3.08848 91.7835 3.08848 91.421V91.4052C3.08848 91.0742 2.84016 90.8693 2.2892 90.8693V90.8614Z" fill="white"/>
<path id="Vector_21" d="M5.23828 87.9453H7.47316C8.09396 87.9453 8.57508 88.1266 8.901 88.4497C9.1726 88.7256 9.32004 89.1196 9.32004 89.5846V89.6004C9.32004 90.4043 8.89324 90.9087 8.27244 91.1373L9.46748 92.9106H8.21036L7.16276 91.3185H6.31692V92.9106H5.23828V87.9453ZM7.40332 90.357C7.931 90.357 8.22588 90.0733 8.22588 89.6556V89.6398C8.22588 89.1748 7.90772 88.9305 7.38004 88.9305H6.30916V90.357H7.40332Z" fill="white"/>
<path id="Vector_22" d="M10.4688 87.9453H11.5474V92.9106H10.4688V87.9453Z" fill="white"/>
<path id="Vector_23" d="M13.9294 88.9541H12.4395V87.9453H16.4979V88.9541H15.008V92.9185H13.9294V88.9541Z" fill="white"/>
<path id="Vector_24" d="M17.3984 87.9453H18.4771V92.9106H17.3984V87.9453Z" fill="white"/>
<path id="Vector_25" d="M19.4707 92.1861L20.107 91.4137C20.5493 91.7842 21.0071 92.0206 21.5659 92.0206C22.0082 92.0206 22.272 91.8393 22.272 91.5556V91.5398C22.272 91.264 22.1013 91.1221 21.2865 90.9093C20.301 90.6571 19.6647 90.3734 19.6647 89.3882V89.3725C19.6647 88.474 20.3786 87.875 21.3796 87.875C22.0935 87.875 22.6988 88.1036 23.1955 88.5055L22.6367 89.3252C22.2022 89.0178 21.7754 88.8365 21.3641 88.8365C20.9528 88.8365 20.7355 89.0257 20.7355 89.27V89.2858C20.7355 89.6089 20.9451 89.7192 21.7909 89.9399C22.7842 90.2 23.3429 90.5625 23.3429 91.4295V91.4453C23.3429 92.4304 22.5979 92.9821 21.5426 92.9821C20.7976 92.9821 20.0527 92.722 19.4629 92.1861H19.4707Z" fill="white"/>
<path id="Vector_26" d="M24.4355 87.9453H25.5142V89.9078H27.5007V87.9453H28.5794V92.9106H27.5007V90.9166H25.5142V92.9106H24.4355V87.9453Z" fill="white"/>
<path id="Vector_27" d="M31.7695 90.4445V90.4287C31.7695 89.0179 32.8171 87.8594 34.3226 87.8594C35.246 87.8594 35.797 88.1746 36.2548 88.6239L35.5719 89.4278C35.1917 89.081 34.8115 88.8682 34.3226 88.8682C33.5 88.8682 32.9025 89.5617 32.9025 90.4129V90.4287C32.9025 91.2799 33.4845 91.9892 34.3226 91.9892C34.8813 91.9892 35.2227 91.7606 35.6107 91.406L36.2936 92.1074C35.7892 92.6512 35.2305 92.998 34.2838 92.998C32.8404 92.998 31.7695 91.871 31.7695 90.4445Z" fill="white"/>
<path id="Vector_28" d="M37.2246 87.9453H38.3032V91.9175H40.7476V92.9106H37.2324V87.9453H37.2246Z" fill="white"/>
<path id="Vector_29" d="M41.6328 87.9453H42.7115V92.9106H41.6328V87.9453Z" fill="white"/>
<path id="Vector_30" d="M44.0684 87.9454H45.2324L46.5205 90.0497L47.8087 87.9454H48.9727V92.9106H47.9018V89.6635L46.5205 91.7836H46.4895L45.1237 89.6793V92.9028H44.0684V87.9375V87.9454Z" fill="white"/>
<path id="Vector_31" d="M50.3086 87.9453H52.5823C53.141 87.9453 53.5833 88.1029 53.8627 88.3867C54.0877 88.6152 54.1963 88.8911 54.1963 89.23V89.2457C54.1963 89.8053 53.9015 90.1206 53.5523 90.3176C54.1188 90.5383 54.468 90.8693 54.468 91.5392V91.555C54.468 92.4613 53.7385 92.9185 52.6366 92.9185H50.3086V87.9532V87.9453ZM53.1255 89.4112C53.1255 89.0881 52.8772 88.899 52.4193 88.899H51.3562V89.9472H52.3495C52.8228 89.9472 53.1255 89.7896 53.1255 89.4191V89.4034V89.4112ZM52.5978 90.8614H51.3484V91.9569H52.6288C53.1022 91.9569 53.3893 91.7835 53.3893 91.421V91.4052C53.3893 91.0742 53.141 90.8693 52.59 90.8693L52.5978 90.8614Z" fill="white"/>
<path id="Vector_32" d="M55.5625 87.9453H56.6411V92.9106H55.5625V87.9453Z" fill="white"/>
<path id="Vector_33" d="M57.998 87.9453H58.9913L61.2883 91.0033V87.9453H62.3514V92.9106H61.4357L59.0612 89.7501V92.9106H57.998V87.9453Z" fill="white"/>
<path id="Vector_34" d="M63.4453 90.4445V90.4287C63.4453 89.0179 64.5317 87.8594 66.0139 87.8594C66.8985 87.8594 67.4262 88.1037 67.9384 88.5372L67.2632 89.3647C66.883 89.0416 66.5493 88.8603 65.9828 88.8603C65.1991 88.8603 64.5783 89.5617 64.5783 90.405V90.4208C64.5783 91.3272 65.1913 91.9971 66.0604 91.9971C66.4484 91.9971 66.8054 91.8946 67.077 91.6976V90.9883H65.9906V90.0425H68.1168V92.202C67.6124 92.6355 66.9218 92.9901 66.0216 92.9901C64.4929 92.9901 63.4453 91.9025 63.4453 90.4366V90.4445Z" fill="white"/>
<path id="Vector_35" d="M71.0039 87.9454H72.1601L73.1767 91.3108L74.2786 87.9297H75.2021L76.304 91.3108L77.3205 87.9454H78.4457L76.7773 92.9501H75.8384L74.7365 89.6951L73.6345 92.9501H72.6956L71.0272 87.9454H71.0039Z" fill="white"/>
<path id="Vector_36" d="M80.5873 87.9062H81.5806L83.6758 92.9109H82.5506L82.1005 91.7996H80.0286L79.5785 92.9109H78.4766L80.5718 87.9062H80.5873ZM81.7202 90.8302L81.0684 89.2224L80.4166 90.8302H81.7202Z" fill="white"/>
<path id="Vector_37" d="M84.5215 87.9453H85.6001V91.9175H88.0445V92.9106H84.5292V87.9453H84.5215Z" fill="white"/>
<path id="Vector_38" d="M88.9062 87.9453H89.9849V91.9175H92.4293V92.9106H88.914V87.9453H88.9062Z" fill="white"/>
<path id="Vector_39" d="M93.1269 92.1861L93.7632 91.4137C94.2055 91.7842 94.6634 92.0206 95.2221 92.0206C95.6644 92.0206 95.9283 91.8393 95.9283 91.5556V91.5398C95.9283 91.264 95.7575 91.1221 94.9427 90.9093C93.9572 90.6571 93.3209 90.3734 93.3209 89.3882V89.3725C93.3209 88.474 94.0348 87.875 95.0359 87.875C95.7498 87.875 96.3551 88.1036 96.8517 88.5055L96.293 89.3252C95.8584 89.0178 95.4316 88.8365 95.0203 88.8365C94.6091 88.8365 94.3918 89.0257 94.3918 89.27V89.2858C94.3918 89.6089 94.6013 89.7192 95.4471 89.9399C96.4404 90.2 96.9991 90.5625 96.9991 91.4295V91.4453C96.9991 92.4304 96.2542 92.9821 95.1988 92.9821C94.4539 92.9821 93.7089 92.722 93.1191 92.1861H93.1269Z" fill="white"/>
</g>
</g>
</g>
<defs>
<clipPath id="clip0_2009_1531">
<rect width="97" height="93" fill="white"/>
</clipPath>
</defs>
</svg>
